<?xml version="1.0" standalone="no"?>
<!DOCTYPE svg PUBLIC "-//W3C//DTD SVG 1.1//EN" "http://www.w3.org/Graphics/SVG/1.1/DTD/svg11.dtd" >
<svg xmlns="http://www.w3.org/2000/svg">
<metadata></metadata>
<defs>
<font id="ZurichBTRoman" horiz-adv-x="1133" >
<font-face units-per-em="2048" ascent="1556" descent="-492" />
<missing-glyph horiz-adv-x="567" />
<glyph horiz-adv-x="0" />
<glyph horiz-adv-x="2048" />
<glyph unicode="&#xd;" horiz-adv-x="567" />
<glyph unicode=" "  horiz-adv-x="567" />
<glyph unicode="&#x09;" horiz-adv-x="567" />
<glyph unicode="&#xa0;" horiz-adv-x="567" />
<glyph unicode="!" horiz-adv-x="758" d="M270 1475h219l-34 -1131h-150zM276 0v207h205v-207h-205z" />
<glyph unicode="&#x22;" horiz-adv-x="614" d="M90 881v555h139v-555h-139zM385 881v555h139v-555h-139z" />
<glyph unicode="#" horiz-adv-x="1575" d="M88 449l53 147h310l92 262h-330l51 146h332l162 454h166l-162 -454h256l164 454h164l-160 -454h301l-51 -146h-303l-93 -262h322l-51 -147h-322l-162 -453h-165l161 453h-258l-162 -453h-165l159 453h-309zM616 594h261l92 264h-260z" />
<glyph unicode="$" d="M63 406v20l191 -1q5 -126 67 -189.5t195 -75.5v487l-188 58q-252 75 -252 329q0 167 119.5 274t320.5 117v170h100l1 -168q190 -3 299.5 -96t109.5 -250v-16h-182q-10 185 -228 207v-453l103 -28q187 -51 268.5 -136t81.5 -227q0 -190 -118 -301.5t-335 -126.5v-199h-100 v199q-223 0 -338 102.5t-115 303.5zM268 1061.5q0 -80.5 36.5 -120.5t127.5 -71l84 -26v427q-109 -2 -178.5 -65.5t-69.5 -144zM616 625l1 -465q124 9 196 74.5t72 155.5q0 170 -172 212z" />
<glyph unicode="%" horiz-adv-x="2015" d="M176 1075q0 180 84 277.5t238.5 97.5t237.5 -93t83 -274t-85 -282t-240 -101t-236.5 97.5t-81.5 277.5zM340 1077.5q0 -121.5 39.5 -186t115.5 -64.5t118 68.5t42 189t-40 182.5t-116 62t-117.5 -65t-41.5 -186.5zM522 -25l842 1475h129l-842 -1475h-129zM1194 350 q0 180 84 277.5t239 97.5t238.5 -93.5t83.5 -273.5t-86 -281.5t-241 -101.5t-236.5 97.5t-81.5 277.5zM1360 353q0 -122 39.5 -186.5t115.5 -64.5t118 68.5t42 188.5t-41 182.5t-117 62.5t-116.5 -64.5t-40.5 -186.5z" />
<glyph unicode="&#x26;" horiz-adv-x="1241" d="M90 405.5q0 135.5 75 232.5t208 114q-109 27 -171.5 115.5t-62.5 215.5q0 187 120.5 290.5t338.5 103.5h164v-168h-148q-143 0 -207.5 -56.5t-64.5 -179.5q0 -242 268 -242h183v224h200v-224h181v-165h-181v-666h-448q-114 0 -171 10q-161 30 -236 170q-48 90 -48 225.5z M301 415q0 -135 63 -191t238 -56h191v498h-181q-167 0 -239 -58t-72 -193z" />
<glyph unicode="'" horiz-adv-x="317" d="M90 881v555h139v-555h-139z" />
<glyph unicode="(" horiz-adv-x="645" d="M164 628q0 169 50 373t169 496h139q-104 -335 -141 -521t-37 -347t44.5 -374t150.5 -542h-142q-144 377 -188.5 561.5t-44.5 353.5z" />
<glyph unicode=")" horiz-adv-x="645" d="M106 1497h142q145 -379 189 -561.5t44 -350.5t-50.5 -372t-170.5 -500h-137q104 335 141 521t37 347t-44.5 374t-150.5 542z" />
<glyph unicode="*" horiz-adv-x="1081" d="M135 1028v154l338 -37l-209 274l131 78l146 -313l133 313l133 -78l-199 -274l338 37v-154l-338 37l199 -281l-133 -79l-133 321l-146 -321l-131 79l209 281z" />
<glyph unicode="+" horiz-adv-x="1706" d="M254 541v139h528v541h142v-541h528v-139h-528v-541h-142v541h-528z" />
<glyph unicode="," horiz-adv-x="567" d="M98 -254l135 504h236l-229 -504h-142z" />
<glyph unicode="-" horiz-adv-x="678" d="M96 428v172h486v-172h-486z" />
<glyph unicode="." horiz-adv-x="567" d="M172 0v252h223v-252h-223z" />
<glyph unicode="/" horiz-adv-x="616" d="M-33 -147l535 1644h123l-535 -1644h-123z" />
<glyph unicode="0" d="M94 705q0 223 26 347t88 215q126 185 355 185q261 0 387 -227q47 -86 67.5 -205t20.5 -336q0 -707 -469 -707q-244 0 -359.5 177t-115.5 551zM293 707.5q0 -295.5 66 -432t207 -136.5t206.5 141t65.5 436.5t-67 434.5t-205.5 139t-205.5 -143.5t-67 -439z" />
<glyph unicode="1" d="M256 999v211q202 96 315 217h197v-1427h-197v1194q-141 -119 -315 -195z" />
<glyph unicode="2" d="M121 0v205q397 360 545.5 546t148.5 298.5t-64 174.5t-169 62t-163.5 -63t-58.5 -181h-217q6 195 118 302.5t311.5 107.5t320.5 -106.5t121 -286.5q0 -127 -62 -241.5t-262 -313.5l-336 -336h658v-168h-891z" />
<glyph unicode="3" d="M84 378h215q9 -118 70.5 -175.5t188.5 -57.5t205.5 67.5t78.5 188.5t-91.5 191t-261.5 70l-49 -3l1 156q191 5 282.5 66t91.5 173t-65 171t-178.5 59t-183 -57.5t-73.5 -155.5h-204q3 175 124.5 277t330 102t331.5 -105.5t123 -281.5q0 -231 -258 -324 q133 -27 207.5 -119t74.5 -229q0 -187 -137 -301.5t-360.5 -114.5t-342 105t-120.5 298z" />
<glyph unicode="4" d="M51 307v250l611 870h227v-950h192v-170h-192v-307h-191v307h-647zM207 477h491v744z" />
<glyph unicode="5" d="M111 348h217q36 -201 241 -201q127 0 198 88t71 238t-72 226.5t-188 76.5q-224 0 -259 -192h-184l33 843h786v-161h-614l-18 -455q68 67 136 96t156 29q190 0 309 -128t119 -341t-141 -352.5t-369 -139.5q-187 0 -300.5 100.5t-120.5 272.5z" />
<glyph unicode="6" d="M86 670q0 385 130.5 583.5t383.5 198.5q176 0 289 -96.5t122 -255.5h-204q-12 94 -69 147t-144 53q-299 0 -303 -550q105 182 330 182q185 0 303 -125t118 -340t-128.5 -351t-340.5 -136q-487 0 -487 690zM307 456q0 -142 76 -229.5t198 -87.5t196.5 86.5t74.5 231 t-74 231t-194 86.5t-198.5 -88t-78.5 -230z" />
<glyph unicode="7" d="M96 1251v176h914v-192l-498 -1235h-242l551 1251h-725z" />
<glyph unicode="8" d="M80 397q0 275 311 355q-135 32 -212 120t-77 211q0 159 131 263t333.5 104t334 -103.5t131.5 -263.5q0 -127 -75 -215.5t-207 -115.5q143 -31 224 -127.5t81 -235.5q0 -185 -134 -299.5t-356.5 -114.5t-353.5 114t-131 308zM289 399.5q0 -116.5 76 -188.5t200.5 -72 t202.5 72t78 190t-75.5 191.5t-201.5 73.5t-203 -75t-77 -191.5zM305 1070.5q0 -97.5 73 -164t191.5 -66.5t190 62.5t71.5 167t-72.5 166.5t-189 62t-190.5 -65t-74 -162.5z" />
<glyph unicode="9" d="M84 965.5q0 214.5 130 349.5t337 135q489 0 489 -686q0 -388 -128.5 -587.5t-379.5 -199.5q-180 0 -292 95.5t-121 254.5l207 1q12 -92 68 -144.5t143 -52.5q301 0 301 553q-108 -186 -334 -186q-186 0 -303 126.5t-117 341zM274 973q0 -145 74.5 -230.5t194.5 -85.5 t198 88t78 229.5t-74 229.5t-197 88t-198.5 -87t-75.5 -232z" />
<glyph unicode=":" horiz-adv-x="758" d="M268 0v252h221v-252h-221zM268 776v252h221v-252h-221z" />
<glyph unicode=";" horiz-adv-x="758" d="M141 -254l135 504h236l-229 -504h-142zM268 776v252h224v-252h-224z" />
<glyph unicode="&#x3c;" horiz-adv-x="1706" d="M264 547v129l1178 483v-153l-969 -396l969 -393v-154z" />
<glyph unicode="=" horiz-adv-x="1706" d="M254 342v139h1198v-139h-1198zM254 739v140h1198v-140h-1198z" />
<glyph unicode="&#x3e;" horiz-adv-x="1706" d="M264 63v154l971 393l-971 396v153l1178 -483v-129z" />
<glyph unicode="?" horiz-adv-x="1006" d="M131 1266v186q145 47 279 47q216 0 347.5 -101.5t131.5 -275.5t-269 -429l-48 -44q-58 -53 -58 -135v-174h-170v199q0 102 57 159l24 24q251 257 251 382q0 100 -74 160.5t-203.5 60.5t-267.5 -59zM326 0v213h213v-213h-213z" />
<glyph unicode="@" horiz-adv-x="2048" d="M106 522q0 334 203 582q146 178 351.5 270t455.5 92q163 0 310 -45t265 -136t185.5 -222t67.5 -294.5t-63.5 -303.5t-184.5 -236q-141 -112 -316 -112q-200 0 -200 157v19q-108 -174 -301 -174q-153 0 -233.5 85t-80.5 247q0 235 138 394t339 159q170 0 242 -150l57 115 h132l-146 -576q-8 -32 -8 -59q0 -94 100 -94q101 0 195 89q184 174 184 433t-190.5 420t-499.5 161q-264 0 -456 -114t-297 -299.5t-105 -386t61.5 -331.5t192.5 -230q208 -160 539 -160t606 190l55 -82q-297 -223 -664 -223q-383 0 -628 187q-306 234 -306 628zM725 446 q0 -105 48.5 -162t141.5 -57t170.5 69t104.5 179l59 236q-17 88 -68.5 136t-129.5 48q-138 0 -232 -130t-94 -319z" />
<glyph unicode="A" horiz-adv-x="1460" d="M14 0l627 1475h211l592 -1475h-230l-147 381h-684l-164 -381h-205zM449 549h557l-271 727z" />
<glyph unicode="B" horiz-adv-x="1313" d="M170 0v1475h502q193 0 293 -43q96 -46 149 -132.5t53 -204t-61.5 -201t-177.5 -120.5q136 -38 207 -136t71 -247q0 -207 -117 -299t-391 -92h-528zM367 164h303q174 0 250.5 61t76.5 197q0 262 -327 262h-303v-520zM367 848h284q165 0 235 53t70 174q0 236 -305 236h-284 v-463z" />
<glyph unicode="C" horiz-adv-x="1356" d="M115 729q0 367 165 567.5t468 200.5q237 0 374 -109t142 -300h-209q-10 113 -99.5 183t-226.5 70q-190 0 -296.5 -159.5t-106.5 -444t105 -438.5t298 -154q140 0 224.5 67t95.5 185h219q-4 -194 -149 -308t-390 -114q-299 0 -456.5 193.5t-157.5 560.5z" />
<glyph unicode="D" horiz-adv-x="1470" d="M170 0v1475h414q217 0 326 -29.5t196 -97.5q124 -98 190 -260.5t66 -350.5q0 -371 -182 -563q-91 -94 -210.5 -134t-332.5 -40h-467zM367 176h315q473 0 473 541q0 287 -131.5 441.5t-376.5 154.5h-280v-1137z" />
<glyph unicode="E" horiz-adv-x="1237" d="M170 0v1475h915v-175h-718v-448h688v-174h-688v-502h735v-176h-932z" />
<glyph unicode="F" horiz-adv-x="1126" d="M170 0v1475h858v-177h-661v-452h626v-176h-626v-670h-197z" />
<glyph unicode="G" horiz-adv-x="1524" d="M113 727q0 356 193 563t530 207q236 0 374 -104t144 -285h-215q-4 103 -96.5 170.5t-233.5 67.5q-229 0 -358 -163.5t-129 -449.5t136.5 -441t385.5 -155q116 0 301 53v439h-307v166h516v-727q-287 -95 -518 -95q-339 0 -531 199t-192 555z" />
<glyph unicode="H" horiz-adv-x="1462" d="M170 0v1475h201v-629h725v629h196v-1475h-196v670h-725v-670h-201z" />
<glyph unicode="I" horiz-adv-x="539" d="M170 0v1475h197v-1475h-197z" />
<glyph unicode="J" horiz-adv-x="1081" d="M45 356l2 43h195l-2 -32q0 -107 57 -163.5t181 -56.5t184.5 79.5t60.5 273.5v975h197v-1010q0 -490 -449 -490q-203 0 -314.5 99.5t-111.5 281.5z" />
<glyph unicode="K" horiz-adv-x="1331" d="M170 0v1475h197v-633l606 633h264l-641 -656l719 -819h-283l-665 780v-780h-197z" />
<glyph unicode="L" horiz-adv-x="1096" d="M170 0v1475h195v-1299h671v-176h-866z" />
<glyph unicode="M" horiz-adv-x="1862" d="M172 0v1475h336l438 -1203l418 1203h326v-1475h-193v1319l-471 -1319h-170l-487 1305v-1305h-197z" />
<glyph unicode="N" horiz-adv-x="1503" d="M172 0v1475h281l698 -1203v1203h178v-1475h-242l-733 1251v-1251h-182z" />
<glyph unicode="O" horiz-adv-x="1579" d="M117 736.5q0 363.5 175.5 562t498.5 198.5t497 -197.5t174 -563.5t-175 -563.5t-495.5 -197.5t-497.5 199t-177 562.5zM328 742.5q0 -286.5 119.5 -442t342 -155.5t341 152.5t118.5 441.5t-119 442.5t-341.5 153.5t-341.5 -153t-119 -439.5z" />
<glyph unicode="P" horiz-adv-x="1235" d="M170 0v1475h514q481 0 481 -406q0 -218 -139.5 -320t-437.5 -102h-221v-647h-197zM367 829h284q164 0 234.5 55.5t70.5 182.5t-69.5 182.5t-235.5 55.5h-284v-476z" />
<glyph unicode="Q" horiz-adv-x="1579" d="M117 740.5q0 362.5 175.5 560.5t496 198t497 -194t176.5 -545q0 -391 -221 -582h307v-178h-514l-229 -14q-330 0 -509 196t-179 558.5zM328 748.5q0 -284.5 119 -436.5t342 -152t341.5 151t118.5 436.5t-119 437.5t-341 152t-341.5 -152t-119.5 -436.5z" />
<glyph unicode="R" horiz-adv-x="1327" d="M170 0v1475h520q490 0 490 -385q0 -132 -71.5 -223.5t-199.5 -125.5q97 -22 142.5 -68.5t68.5 -151.5q7 -33 30.5 -211.5t61.5 -309.5h-211q-31 125 -51.5 299t-36.5 217q-30 85 -93.5 117.5t-205.5 32.5h-247v-666h-197zM367 846h288q170 0 242 52t72 171.5t-64.5 169 t-249.5 49.5h-288v-442z" />
<glyph unicode="S" horiz-adv-x="1343" d="M115 412v20h210q5 -144 87.5 -213t251 -69t264.5 68.5t96 187.5q0 169 -344 255l-60 15q-19 5 -58 15q-195 48 -271 93q-75 45 -117.5 123.5t-42.5 173.5q0 192 149 304t393 112t375.5 -97.5t131.5 -266.5v-23h-199q-5 108 -85.5 166.5t-228.5 58.5t-237.5 -65.5 t-89.5 -175.5q0 -145 331 -228q47 -12 72 -18q296 -76 391 -167.5t95 -256.5q0 -211 -147.5 -330t-420.5 -119t-409.5 107t-136.5 330z" />
<glyph unicode="T" horiz-adv-x="1235" d="M29 1298v177h1177v-177h-491v-1298h-197v1298h-489z" />
<glyph unicode="U" horiz-adv-x="1491" d="M152 567v908h202v-871q0 -233 94 -341.5t300.5 -108.5t302.5 112.5t96 368.5v840h190v-963q0 -252 -162 -393.5t-449 -141.5q-574 0 -574 590z" />
<glyph unicode="V" horiz-adv-x="1346" d="M33 1475h221l410 -1246l438 1246h213l-551 -1475h-217z" />
<glyph unicode="W" horiz-adv-x="2001" d="M33 1475h194l318 -1180l356 1180h223l324 -1207l332 1207h188l-426 -1475h-207l-334 1255l-374 -1255h-193z" />
<glyph unicode="X" horiz-adv-x="1434" d="M45 0l561 774l-491 701h231l391 -568l389 568h232l-512 -701l543 -774h-238l-430 639l-445 -639h-231z" />
<glyph unicode="Y" horiz-adv-x="1346" d="M18 1475h244l426 -719l414 719h225l-551 -893v-582h-196v582z" />
<glyph unicode="Z" horiz-adv-x="1233" d="M74 0v209l846 1089h-811v177h1024v-211l-838 -1082h864v-182h-1085z" />
<glyph unicode="[" horiz-adv-x="645" d="M213 -311v1786h348v-111h-188v-1565h188v-110h-348z" />
<glyph unicode="\" horiz-adv-x="616" d="M-33 1497h123l533 -1644h-121z" />
<glyph unicode="]" horiz-adv-x="645" d="M84 -201h186v1565h-186v111h348v-1786h-348v110z" />
<glyph unicode="^" horiz-adv-x="2048" d="M420 901l510 557h186l510 -557h-180l-422 420l-424 -420h-180z" />
<glyph unicode="_" horiz-adv-x="1024" d="M0 -340h1024v-143h-1024v143z" />
<glyph unicode="`" horiz-adv-x="1024" d="M250 1511h201l204 -348h-120z" />
<glyph unicode="a" horiz-adv-x="1087" d="M84 296.5q0 151.5 130 247t355 95.5h179v125q0 168 -203 168q-95 0 -150.5 -47t-58.5 -129h-182v16q0 136 97.5 208.5t295.5 72.5t294.5 -75.5t96.5 -244.5v-635q0 -34 10 -98h-170q-10 32 -20 156v6q-80 -187 -330 -187q-156 0 -250 85t-94 236.5zM279 314.5 q0 -86.5 55 -136t139 -49.5q133 0 204 71.5t71 207.5v102h-160q-147 0 -228 -54.5t-81 -141z" />
<glyph unicode="b" horiz-adv-x="1233" d="M145 0q13 95 13 205v1270h188v-603q151 172 353.5 172t316.5 -138.5t114 -391t-119.5 -396t-333.5 -143.5t-331 166l-8 -141h-193zM346 503q0 -188 81.5 -295.5t215 -107.5t213.5 114.5t80 303.5t-81 295.5t-215 106.5t-214 -114.5t-80 -302.5z" />
<glyph unicode="c" horiz-adv-x="1057" d="M98 500.5q0 256.5 124.5 404.5t346.5 148q173 0 276 -93.5t103 -250.5v-4h-184q0 92 -60 153.5t-149 61.5q-121 0 -190.5 -102.5t-69.5 -280.5q0 -418 256 -418q99 0 159 61.5t62 165.5h184q-12 -180 -115 -275.5t-304 -95.5t-320 134.5t-119 391z" />
<glyph unicode="d" horiz-adv-x="1233" d="M100 509q0 250 119.5 392.5t333 142.5t334.5 -172v603h188v-1270q0 -103 12 -205h-192l-8 152q-72 -94 -149.5 -135.5t-180.5 -41.5q-212 0 -334.5 142t-122.5 392zM297 518.5q0 -188.5 80.5 -303.5t214 -115t214.5 106.5t81 295t-80 303.5t-214 115t-215 -106.5 t-81 -295z" />
<glyph unicode="e" horiz-adv-x="1128" d="M102 502q0 263 122.5 407t341 144t338.5 -119.5t120 -325.5q0 -79 -4 -125h-729v-61q0 -146 75 -225.5t200 -79.5t191.5 57.5t68.5 155.5h179q-1 -160 -114.5 -257.5t-300.5 -97.5q-240 0 -364 132t-124 395zM301 616h530v23q0 128 -70.5 206.5t-188 78.5t-194.5 -85 t-77 -223z" />
<glyph unicode="f" horiz-adv-x="631" d="M-8 889v139h188v164q0 307 285 307q75 0 172 -19v-151q-94 23 -145 23t-86 -42.5t-35 -121.5v-160h237v-139h-237v-889h-191v889h-188z" />
<glyph unicode="g" horiz-adv-x="1214" d="M102 542q0 237 119 373t320 136q237 0 329 -150l7 127h178q-8 -88 -8 -182v-813q0 -230 -114.5 -335.5t-347 -105.5t-331.5 82.5t-100 261.5h204q4 -210 230 -210q137 0 202.5 67.5t65.5 208.5v193q-30 -61 -119 -104.5t-186 -43.5q-217 0 -333 129t-116 366zM301 535.5 q0 -174.5 79 -272t210.5 -97.5t210 105.5t78.5 279.5t-79.5 272.5t-211 98.5t-209.5 -106t-78 -280.5z" />
<glyph unicode="h" horiz-adv-x="1204" d="M166 0v1475h190v-617q35 83 122 132.5t194.5 49.5t191.5 -37q143 -63 172 -190q11 -52 11 -176v-637h-189v649q0 130 -55.5 191t-174.5 61t-195.5 -65t-76.5 -168v-668h-190z" />
<glyph unicode="i" horiz-adv-x="512" d="M145 1266v209h222v-209h-222zM162 0v1028h190v-1028h-190z" />
<glyph unicode="j" horiz-adv-x="512" d="M-27 -256q114 0 149.5 30t35.5 154v1100h190v-1139q0 -152 -66 -222t-208 -70q-21 0 -101 8v139zM143 1266v209h219v-209h-219z" />
<glyph unicode="k" horiz-adv-x="1008" d="M156 0v1475h190v-867l389 422h232l-428 -444l458 -586h-233l-418 551v-551h-190z" />
<glyph unicode="l" horiz-adv-x="512" d="M162 0v1475h190v-1475h-190z" />
<glyph unicode="m" horiz-adv-x="1868" d="M158 1028h192l6 -174q40 85 124 135.5t188 50.5q207 0 338 -180q79 97 159 138.5t186.5 41.5t195.5 -45q134 -68 153 -210q8 -55 8 -156v-629h-184v655q0 240 -226 240q-115 0 -188.5 -72t-73.5 -186v-637h-192v621q0 142 -55 209t-174.5 67t-189 -72.5t-69.5 -203.5 v-621h-190v815q0 73 -8 213z" />
<glyph unicode="n" horiz-adv-x="1204" d="M158 1028h192l6 -168q35 83 121.5 131.5t194.5 48.5t192 -37q143 -62 172 -189q11 -51 11 -175v-639h-189v649q0 130 -55.5 191t-174.5 61t-195.5 -65t-76.5 -168v-668h-190v817q0 113 -8 211z" />
<glyph unicode="o" horiz-adv-x="1233" d="M106 502.5q0 249.5 137.5 399t376 149.5t371.5 -139.5t133 -394t-137.5 -398.5t-376.5 -144t-371.5 139t-132.5 388.5zM301 507q0 -187 82 -287.5t231 -100.5t233.5 106.5t84.5 294.5t-82 291.5t-230 103.5t-233.5 -110.5t-85.5 -297.5z" />
<glyph unicode="p" horiz-adv-x="1233" d="M145 1028h193l8 -154q115 179 330 179t334.5 -141.5t119.5 -397t-115.5 -393t-330.5 -137.5t-338 174v-547h-188v1214q0 106 -13 203zM346 527q0 -188 80.5 -303t214 -115t214.5 107t81 295.5t-79.5 302.5t-213.5 114t-215.5 -106.5t-81.5 -294.5z" />
<glyph unicode="q" horiz-adv-x="1233" d="M100 515q0 255 120.5 396.5t335 141.5t329.5 -179l8 154h192q-10 -90 -10 -203v-1214h-190v547q-123 -174 -337.5 -174t-331 138t-116.5 393zM297 512q0 -189 81 -296t214.5 -107t213 114.5t79.5 303t-81.5 295t-215 106.5t-212.5 -113.5t-79 -302.5z" />
<glyph unicode="r" horiz-adv-x="758" d="M150 1028h190l4 -197q56 197 289 197q47 0 78 -7v-177q-62 12 -103 12q-127 0 -195.5 -72t-68.5 -206v-578h-188v866q0 88 -6 162z" />
<glyph unicode="s" horiz-adv-x="1006" d="M84 285v24h190v-4q0 -84 59.5 -135t157 -51t157 45t59.5 107.5t-30 95.5t-94 49l-218 51q-273 63 -273 268q0 141 114.5 228.5t294.5 87.5t280 -72.5t100 -198.5q0 -20 -2 -30h-189v8q0 74 -52.5 117t-142.5 43t-148 -43t-58 -100t35 -87.5t116 -52.5l234 -64 q237 -63 237 -276q0 -146 -111 -233t-313 -87t-302.5 75t-100.5 235z" />
<glyph unicode="t" horiz-adv-x="649" d="M20 893v135h175v211l188 64v-275h229v-135h-229v-631q0 -80 26.5 -105.5t84.5 -25.5t114 14v-143q-96 -25 -149 -25q-145 0 -204.5 50t-59.5 168v698h-175z" />
<glyph unicode="u" horiz-adv-x="1204" d="M158 383v645h188v-657q0 -130 56 -191t174.5 -61t195 66t76.5 169v674h190v-825q0 -126 9 -203h-193l-6 162q-35 -83 -122.5 -132.5t-194.5 -49.5t-191 38q-144 64 -171 190q-11 51 -11 175z" />
<glyph unicode="v" horiz-adv-x="1112" d="M33 1028h192l328 -815l332 815h188l-434 -1028h-186z" />
<glyph unicode="w" horiz-adv-x="1659" d="M23 1028h186l256 -825l258 825h231l234 -825l262 825h184l-356 -1028h-199l-248 864l-270 -864h-201z" />
<glyph unicode="x" horiz-adv-x="1118" d="M27 0l395 541l-369 487h242l270 -385l283 385h219l-391 -496l393 -532h-244l-293 414l-288 -414h-217z" />
<glyph unicode="y" horiz-adv-x="1112" d="M33 1028h192l328 -815l332 815h188l-602 -1417h-176l158 389z" />
<glyph unicode="z" horiz-adv-x="899" d="M66 0v190l548 697h-514v141h723v-166l-563 -717h561v-145h-755z" />
<glyph unicode="{" horiz-adv-x="1024" d="M168 457v149l45 -2q130 0 184 60.5t54 207.5v246q0 148 22.5 210.5t72.5 93.5t113.5 43t169.5 12h37v-150h-41q-120 0 -161 -44.5t-41 -184.5v-242q0 -160 -44.5 -228t-156.5 -98q113 -28 157 -96t44 -229v-242q0 -141 41.5 -185t162.5 -44h39v-148h-43q-193 0 -260 41.5 t-89.5 104.5t-22.5 211v245q0 149 -54.5 210t-185.5 61z" />
<glyph unicode="|" horiz-adv-x="1024" d="M438 -483v2048h150v-2048h-150z" />
<glyph unicode="}" horiz-adv-x="1024" d="M160 -266h39q120 0 162 45t42 186v240q0 160 44.5 228t156.5 97q-112 30 -156.5 98t-44.5 228v242q0 140 -42 184.5t-162 44.5h-39v150h37q195 0 278 -52q55 -34 77.5 -96.5t22.5 -210.5v-246q0 -147 54 -207.5t184 -60.5l45 2v-149l-43 2q-132 0 -186 -60.5t-54 -210.5 v-245q0 -148 -22.5 -211t-71 -93t-109.5 -41.5t-169 -11.5h-43v148z" />
<glyph unicode="~" horiz-adv-x="1706" d="M178 451v155q212 144 387 144q134 0 338 -79q159 -57 240 -57q166 0 387 156v-156q-204 -141 -389 -141q-93 0 -256 58q-212 77 -322 77q-160 0 -385 -157z" />
<glyph unicode="&#xa0;" />
<glyph unicode="&#xa1;" horiz-adv-x="758" d="M270 0l33 1130h150l36 -1130h-219zM276 1268v207h205v-207h-205z" />
<glyph unicode="&#xa2;" d="M137 522q0 260 122 411.5t329 151.5q25 0 121 -12l71 252l103 -29l-76 -256q92 -46 135 -118.5t45 -183.5h-184q-4 89 -43 132l-205 -716l45 -2q92 0 150.5 62t61.5 163h183q-7 -171 -115.5 -274t-277.5 -103q-24 0 -86 10l-78 -276l-102 30l78 269q-135 49 -206 174.5 t-71 314.5zM334 583.5q0 -162.5 30 -252.5t95 -141l208 745q-36 15 -79 15q-116 0 -185 -102t-69 -264.5z" />
<glyph unicode="&#xa3;" d="M70 0v156h145v534h-145v139h145v175q0 229 107.5 337.5t327 108.5t331.5 -84t114 -246l-200 1q-5 94 -64 144t-168.5 50t-177 -64t-67.5 -172v-250h280v-139h-280v-534h639v-156h-987z" />
<glyph unicode="&#xa4;" d="M-23 811l52 117h118q20 276 149 422.5t336.5 146.5t316 -108.5t114.5 -309.5l-199 1q-9 119 -69.5 187t-169.5 68t-185.5 -107t-91.5 -300h443l-52 -117h-399q-2 -48 -2 -80.5t2 -62.5h334l-53 -117h-273q15 -202 89 -308t200 -106q96 0 156.5 70.5t64.5 187.5h209 q-2 -192 -119.5 -306t-320.5 -114t-329 150t-151 426h-141l53 117h82q-2 48 -2 79.5t2 63.5h-164z" />
<glyph unicode="&#xa5;" horiz-adv-x="1239" d="M-33 1427h226l438 -712l424 712h211l-279 -440h227v-96h-290l-131 -207h421v-94h-483l-14 -27v-563h-191v563l-16 27h-485v94h424l-134 207h-290v96h229z" />
<glyph unicode="&#xa6;" horiz-adv-x="1024" d="M438 -350v758h150v-758h-150zM438 674v758h150v-758h-150z" />
<glyph unicode="&#xa7;" horiz-adv-x="1081" d="M186 707q0 188 224 276q-193 64 -193 234q0 130 98 205t271 75q91 0 239 -37v-155q-132 55 -224.5 55t-136.5 -36.5t-44 -100.5q0 -95 181 -151l30 -9q139 -44 194.5 -102t55.5 -148.5t-56 -162t-153 -109.5q109 -26 166 -92.5t57 -167.5q0 -142 -111 -224t-305 -82 q-111 0 -258 43v175q150 -68 254 -68t160.5 42.5t56.5 117.5q0 96 -174 150l-30 9q-193 62 -247.5 116.5t-54.5 146.5zM358 759.5q0 -55.5 60 -107.5t115 -52t118.5 61.5t63.5 118.5t-66.5 106.5t-119.5 49.5t-112 -60.5t-59 -116z" />
<glyph unicode="&#xa8;" horiz-adv-x="1024" d="M256 1223v209h182v-209h-182zM586 1223v209h182v-209h-182z" />
<glyph unicode="&#xa9;" horiz-adv-x="1706" d="M117 727q0 303 216 520t523 217t520 -215q104 -103 159.5 -238.5t55.5 -284.5q0 -306 -213 -515q-227 -221 -526 -221q-301 0 -518 219q-217 215 -217 518zM213 728q0 -260 190 -452q190 -188 451 -188q258 0 448.5 185.5t190.5 453t-184 453.5q-190 188 -455 188 q-264 0 -448 -184q-93 -93 -143 -211.5t-50 -244.5zM463 726q0 207 109 329.5t286 122.5q142 0 236.5 -75t105.5 -196h-147q-13 77 -66 118.5t-148.5 41.5t-155.5 -90.5t-60 -248.5t62 -245.5t173 -87.5q82 0 136.5 47t68.5 129h145q-9 -130 -107.5 -211t-264.5 -81 t-269.5 120t-103.5 327z" />
<glyph unicode="&#xaa;" horiz-adv-x="815" d="M53 960.5q0 108.5 102 179t273 70.5h123v78q0 111 -141 111q-69 0 -108.5 -33t-41.5 -92h-158v8q0 104 77.5 160.5t230.5 56.5t228 -55.5t75 -175.5v-400q0 -68 10 -120h-148q-7 29 -14 88q-71 -107 -242 -107q-120 0 -193 61.5t-73 170zM102 489v113h570v-113h-570z M217 973q0 -59 39.5 -90t118 -31t127.5 49.5t49 138.5v64h-111q-107 0 -165 -36t-58 -95z" />
<glyph unicode="&#xab;" horiz-adv-x="1001" d="M115 522l213 393h164l-183 -393l193 -409h-162zM500 522l213 393h164l-183 -393l195 -409h-162z" />
<glyph unicode="&#xac;" horiz-adv-x="1706" d="M254 721v139h1198v-502h-137v363h-1061z" />
<glyph unicode="&#xad;" horiz-adv-x="678" d="M96 428v172h486v-172h-486z" />
<glyph unicode="&#xae;" horiz-adv-x="1706" d="M117 727q0 146 57.5 282.5t165.5 245.5q205 209 512 209q311 0 526 -219q103 -104 158 -238t55 -283q0 -306 -215 -515q-109 -106 -244.5 -162.5t-281.5 -56.5q-301 0 -518 221q-215 217 -215 516zM213 728q0 -259 188 -449q90 -92 206.5 -141.5t243.5 -49.5 q260 0 451 185t191 454t-185 455t-453.5 186t-446.5 -182q-94 -95 -144.5 -214t-50.5 -244zM557 324v835h315q349 0 349 -229q0 -89 -50 -148t-141 -77l187 -381h-177l-170 356h-155v-356h-158zM715 780h133q113 0 162 31.5t49 104.5t-51 107t-164 34h-129v-277z" />
<glyph unicode="&#xaf;" horiz-adv-x="1024" d="M242 1257v140h540v-140h-540z" />
<glyph unicode="&#xb0;" horiz-adv-x="674" d="M49 1167q0 120 84.5 204.5t203.5 84.5t203.5 -84.5t84.5 -204t-84 -203t-205 -83.5t-204 83t-83 203zM143 1169q0 -81 57 -138.5t138 -57.5t136.5 57.5t55.5 138.5t-55.5 137t-136.5 56t-138 -56t-57 -137z" />
<glyph unicode="&#xb1;" horiz-adv-x="1706" d="M254 29v141h1198v-141h-1198zM254 713v139h528v340h142v-340h528v-139h-528v-340h-142v340h-528z" />
<glyph unicode="&#xb2;" horiz-adv-x="748" d="M80 571v123q261 215 360 327.5t99 179.5t-43 104.5t-112.5 37.5t-107.5 -38t-38 -109h-143q4 117 77.5 181.5t205.5 64.5t212 -63.5t80 -172.5q0 -75 -41.5 -143t-173.5 -189l-222 -202h435v-101h-588z" />
<glyph unicode="&#xb3;" horiz-adv-x="748" d="M56 799h141q6 -72 46.5 -106t125 -34t135.5 40t51 112.5t-60.5 115t-170.5 42.5l-33 -2v94q127 3 187.5 39t60.5 103.5t-43.5 102.5t-118.5 35t-120.5 -34t-47.5 -92h-135q2 105 81.5 166t217.5 61t219.5 -63.5t81.5 -170.5q0 -137 -170 -192q87 -17 136.5 -72.5 t49.5 -136.5q0 -112 -91 -181t-238.5 -69t-225.5 63t-79 179z" />
<glyph unicode="&#xb4;" horiz-adv-x="1024" d="M369 1163l204 348h201l-285 -348h-120z" />
<glyph unicode="&#xb5;" horiz-adv-x="1151" d="M-113 -428l318 1499h180l-129 -600q-14 -64 -14 -148t52 -138t148 -54q132 0 208.5 92.5t123.5 311.5l115 536h178l-156 -732q-1 -6 -11.5 -56.5t-10.5 -81.5q0 -62 72 -62q18 0 32 2l-31 -143q-48 -10 -109.5 -10t-95.5 29t-52 100q-89 -131 -258.5 -131t-268.5 116 l-110 -530h-181z" />
<glyph unicode="&#xb6;" horiz-adv-x="1024" d="M66 1133q0 154 107.5 250t285.5 96h499v-86h-120v-1393h-111v1393h-176v-1393h-113v782q-170 8 -271 102.5t-101 248.5z" />
<glyph unicode="&#xb7;" horiz-adv-x="567" d="M143 714q0 59 40.5 99.5t99 40.5t100 -41t41.5 -98.5t-42 -99.5t-100 -42t-98.5 41t-40.5 100z" />
<glyph unicode="&#xb8;" horiz-adv-x="1024" d="M256 -326q165 -39 246 -39q121 0 121 84t-127 84l-60 -1v198h76v-102h29q223 0 223 -181q0 -91 -64.5 -139.5t-174 -48.5t-269.5 45v100z" />
<glyph unicode="&#xb9;" horiz-adv-x="748" d="M170 1171v127q142 64 207 129h131v-856h-131v717q-98 -75 -207 -117z" />
<glyph unicode="&#xba;" horiz-adv-x="924" d="M70 1113q0 177 107 280.5t286.5 103.5t285 -103.5t105.5 -280.5t-105 -280.5t-287.5 -103.5t-287 103.5t-104.5 280.5zM129 489v113h668v-113h-668zM236 1114q0 -131 57.5 -200.5t168 -69.5t168.5 69.5t58 200.5t-58.5 201.5t-167 70.5t-167.5 -70.5t-59 -201.5z" />
<glyph unicode="&#xbb;" horiz-adv-x="1001" d="M113 113l194 409l-182 393h164l213 -393l-228 -409h-161zM500 113l192 409l-182 393h164l213 -393l-228 -409h-159z" />
<glyph unicode="&#xbc;" horiz-adv-x="1769" d="M162 1188v119q127 55 198 120h123v-798h-123v667q-90 -64 -198 -108zM373 -25l899 1475h125l-899 -1475h-125zM1090 172v139l383 488h143v-533h123v-94h-123v-172h-119v172h-407zM1188 266h309v418z" />
<glyph unicode="&#xbd;" horiz-adv-x="1769" d="M162 1188v119q127 55 198 120h123v-798h-123v667q-90 -64 -198 -108zM373 -25l899 1475h125l-899 -1475h-125zM1133 0v115q247 198 342.5 303.5t95.5 169t-40.5 98.5t-106.5 35t-103 -36t-37 -101h-137q5 110 74.5 169.5t195.5 59.5t202.5 -59.5t76.5 -145t-39 -149.5 t-166 -176l-211 -189h414v-94h-561z" />
<glyph unicode="&#xbe;" horiz-adv-x="1769" d="M53 842h135q7 -68 45 -99.5t118.5 -31.5t129.5 37.5t49 105t-57.5 106.5t-163.5 39l-33 -2l1 88q122 4 179.5 37.5t57.5 96t-41.5 96t-112.5 33.5t-115.5 -33t-46.5 -86h-128q1 97 77.5 154t208.5 57t209.5 -58.5t77.5 -156.5q0 -129 -164 -183q85 -15 131.5 -66 t46.5 -128q0 -105 -86 -169.5t-227 -64.5t-216 59.5t-75 168.5zM371 -25l899 1475h125l-899 -1475h-125zM1087 172v139l383 488h144v-533h123v-94h-123v-172h-119v172h-408zM1186 266h309v418z" />
<glyph unicode="&#xbf;" horiz-adv-x="1006" d="M115 351.5q0 172.5 267 424.5l28 27q9 9 26 24q56 51 56 134v174h170v-199q0 -66 -8 -93t-50 -69l-29 -30q-245 -250 -245 -373q0 -101 74 -162.5t202 -61.5t268 62v-189q-143 -45 -280 -45q-216 0 -347.5 102t-131.5 274.5zM467 1262v213h213v-213h-213z" />
<glyph unicode="&#xc0;" horiz-adv-x="1460" d="M14 0l627 1475h211l592 -1475h-230l-147 381h-684l-164 -381h-205zM449 549h557l-271 727zM488 1957h201l204 -348h-120z" />
<glyph unicode="&#xc1;" horiz-adv-x="1460" d="M14 0l627 1475h211l592 -1475h-230l-147 381h-684l-164 -381h-205zM449 549h557l-271 727zM607 1609l204 348h201l-285 -348h-120z" />
<glyph unicode="&#xc2;" horiz-adv-x="1460" d="M14 0l627 1475h211l592 -1475h-230l-147 381h-684l-164 -381h-205zM449 549h557l-271 727zM455 1609l197 348h196l197 -348h-123l-172 230l-174 -230h-121z" />
<glyph unicode="&#xc3;" horiz-adv-x="1460" d="M14 0l627 1475h211l592 -1475h-230l-147 381h-684l-164 -381h-205zM449 549h557l-271 727zM457 1656q18 99 68 152t125 53q35 0 59 -8l99 -29q38 -10 53 -10q66 0 94 74h88q-20 -102 -70.5 -155.5t-126.5 -53.5q-29 0 -65 10l-97 27q-26 8 -49 8q-62 0 -90 -68h-88z" />
<glyph unicode="&#xc4;" horiz-adv-x="1460" d="M14 0l627 1475h211l592 -1475h-230l-147 381h-684l-164 -381h-205zM449 549h557l-271 727zM494 1669v209h182v-209h-182zM824 1669v209h182v-209h-182z" />
<glyph unicode="&#xc5;" horiz-adv-x="1460" d="M14 0l627 1456h211l592 -1456h-230l-147 381h-684l-164 -381h-205zM449 549h557l-271 727zM518 1743q0 95 67 162t162 67t161.5 -67t66.5 -162t-66 -161t-161.5 -66t-162.5 66t-67 161zM633 1744.5q0 -48.5 33.5 -82.5t80.5 -34t82 35t35 81t-35.5 82t-82 36t-80 -34.5 t-33.5 -83z" />
<glyph unicode="&#xc6;" horiz-adv-x="2015" d="M-20 0l831 1475h1049v-179h-740l76 -450h635v-176h-604l86 -492h571v-178h-745l-64 399h-661l-219 -399h-215zM514 575h533l-121 748z" />
<glyph unicode="&#xc7;" horiz-adv-x="1356" d="M115 729q0 367 165 567.5t468 200.5q237 0 374 -109t142 -300h-209q-10 113 -99.5 183t-226.5 70q-190 0 -296.5 -159.5t-106.5 -444t105 -438.5t298 -154q140 0 224.5 67t95.5 185h219q-4 -194 -149 -308t-390 -114q-299 0 -456.5 193.5t-157.5 560.5zM477 -326 q165 -39 246 -39q121 0 121 84t-127 84l-60 -1v198h76v-102h29q223 0 223 -181q0 -91 -64.5 -139.5t-174 -48.5t-269.5 45v100z" />
<glyph unicode="&#xc8;" horiz-adv-x="1237" d="M170 0v1475h915v-175h-718v-448h688v-174h-688v-502h735v-176h-932zM369 1957h201l204 -348h-120z" />
<glyph unicode="&#xc9;" horiz-adv-x="1237" d="M170 0v1475h915v-175h-718v-448h688v-174h-688v-502h735v-176h-932zM488 1609l204 348h201l-285 -348h-120z" />
<glyph unicode="&#xca;" horiz-adv-x="1237" d="M170 0v1475h915v-175h-718v-448h688v-174h-688v-502h735v-176h-932zM336 1609l197 348h196l197 -348h-123l-172 230l-174 -230h-121z" />
<glyph unicode="&#xcb;" horiz-adv-x="1237" d="M170 0v1475h915v-175h-718v-448h688v-174h-688v-502h735v-176h-932zM375 1669v209h182v-209h-182zM705 1669v209h182v-209h-182z" />
<glyph unicode="&#xcc;" horiz-adv-x="539" d="M8 1957h201l204 -348h-120zM170 0v1475h197v-1475h-197z" />
<glyph unicode="&#xcd;" horiz-adv-x="539" d="M127 1609l204 348h201l-285 -348h-120zM170 0v1475h197v-1475h-197z" />
<glyph unicode="&#xce;" horiz-adv-x="539" d="M-25 1609l197 348h196l197 -348h-123l-172 230l-174 -230h-121zM170 0v1475h197v-1475h-197z" />
<glyph unicode="&#xcf;" horiz-adv-x="539" d="M14 1669v209h182v-209h-182zM170 0v1475h197v-1475h-197zM344 1669v209h182v-209h-182z" />
<glyph unicode="&#xd0;" horiz-adv-x="1481" d="M0 680v156h186v643h412q208 0 320 -30q277 -74 394 -360q66 -163 66 -351q0 -372 -182 -564q-89 -94 -208.5 -134t-336.5 -40h-465v680h-186zM381 176h315q473 0 473 541q0 287 -131.5 441.5t-375.5 154.5h-281v-477h344v-156h-344v-504z" />
<glyph unicode="&#xd1;" horiz-adv-x="1503" d="M172 0v1475h281l698 -1203v1203h178v-1475h-242l-733 1251v-1251h-182zM481 1656q18 99 68 152t125 53q35 0 59 -8l99 -29q38 -10 53 -10q66 0 94 74h88q-20 -102 -70.5 -155.5t-126.5 -53.5q-29 0 -65 10l-97 27q-26 8 -49 8q-62 0 -90 -68h-88z" />
<glyph unicode="&#xd2;" horiz-adv-x="1579" d="M117 736.5q0 363.5 175.5 562t498.5 198.5t497 -197.5t174 -563.5t-175 -563.5t-495.5 -197.5t-497.5 199t-177 562.5zM328 742.5q0 -286.5 119.5 -442t342 -155.5t341 152.5t118.5 441.5t-119 442.5t-341.5 153.5t-341.5 -153t-119 -439.5zM529 1957h201l204 -348h-120z " />
<glyph unicode="&#xd3;" horiz-adv-x="1579" d="M117 736.5q0 363.5 175.5 562t498.5 198.5t497 -197.5t174 -563.5t-175 -563.5t-495.5 -197.5t-497.5 199t-177 562.5zM328 742.5q0 -286.5 119.5 -442t342 -155.5t341 152.5t118.5 441.5t-119 442.5t-341.5 153.5t-341.5 -153t-119 -439.5zM648 1609l204 348h201 l-285 -348h-120z" />
<glyph unicode="&#xd4;" horiz-adv-x="1579" d="M117 736.5q0 363.5 175.5 562t498.5 198.5t497 -197.5t174 -563.5t-175 -563.5t-495.5 -197.5t-497.5 199t-177 562.5zM328 742.5q0 -286.5 119.5 -442t342 -155.5t341 152.5t118.5 441.5t-119 442.5t-341.5 153.5t-341.5 -153t-119 -439.5zM496 1609l197 348h196 l197 -348h-123l-172 230l-174 -230h-121z" />
<glyph unicode="&#xd5;" horiz-adv-x="1579" d="M117 736.5q0 363.5 175.5 562t498.5 198.5t497 -197.5t174 -563.5t-175 -563.5t-495.5 -197.5t-497.5 199t-177 562.5zM328 742.5q0 -286.5 119.5 -442t342 -155.5t341 152.5t118.5 441.5t-119 442.5t-341.5 153.5t-341.5 -153t-119 -439.5zM498 1656q18 99 68 152 t125 53q35 0 59 -8l99 -29q38 -10 53 -10q66 0 94 74h88q-20 -102 -70.5 -155.5t-126.5 -53.5q-29 0 -65 10l-97 27q-26 8 -49 8q-62 0 -90 -68h-88z" />
<glyph unicode="&#xd6;" horiz-adv-x="1579" d="M117 736.5q0 363.5 175.5 562t498.5 198.5t497 -197.5t174 -563.5t-175 -563.5t-495.5 -197.5t-497.5 199t-177 562.5zM328 742.5q0 -286.5 119.5 -442t342 -155.5t341 152.5t118.5 441.5t-119 442.5t-341.5 153.5t-341.5 -153t-119 -439.5zM535 1669v209h182v-209h-182z M865 1669v209h182v-209h-182z" />
<glyph unicode="&#xd7;" horiz-adv-x="1706" d="M293 141l469 469l-469 469l98 99l469 -469l469 469l98 -99l-469 -469l469 -469l-98 -96l-469 467l-469 -467z" />
<glyph unicode="&#xd8;" horiz-adv-x="1579" d="M117 717q0 383 175.5 581.5t498.5 198.5q213 0 358 -86l139 217l92 -57l-145 -223q227 -189 227 -615q0 -363 -175 -560.5t-496 -197.5q-212 0 -375 99l-166 -256l-88 57l170 260q-215 199 -215 582zM332 743q0 -266 108 -432l613 949q-122 75 -260 75q-223 0 -342 -153 t-119 -439zM518 231q115 -86 275 -86q227 0 344.5 154.5t117.5 452.5q0 314 -122 434z" />
<glyph unicode="&#xd9;" horiz-adv-x="1491" d="M152 567v908h202v-871q0 -233 94 -341.5t300.5 -108.5t302.5 112.5t96 368.5v840h190v-963q0 -252 -162 -393.5t-449 -141.5q-574 0 -574 590zM483 1957h201l204 -348h-120z" />
<glyph unicode="&#xda;" horiz-adv-x="1491" d="M152 567v908h202v-871q0 -233 94 -341.5t300.5 -108.5t302.5 112.5t96 368.5v840h190v-963q0 -252 -162 -393.5t-449 -141.5q-574 0 -574 590zM602 1609l204 348h201l-285 -348h-120z" />
<glyph unicode="&#xdb;" horiz-adv-x="1491" d="M152 567v908h202v-871q0 -233 94 -341.5t300.5 -108.5t302.5 112.5t96 368.5v840h190v-963q0 -252 -162 -393.5t-449 -141.5q-574 0 -574 590zM450 1609l197 348h196l197 -348h-123l-172 230l-174 -230h-121z" />
<glyph unicode="&#xdc;" horiz-adv-x="1491" d="M152 567v908h202v-871q0 -233 94 -341.5t300.5 -108.5t302.5 112.5t96 368.5v840h190v-963q0 -252 -162 -393.5t-449 -141.5q-574 0 -574 590zM489 1669v209h182v-209h-182zM819 1669v209h182v-209h-182z" />
<glyph unicode="&#xdd;" horiz-adv-x="1346" d="M18 1475h244l426 -719l414 719h225l-551 -893v-582h-196v582zM531 1609l204 348h201l-285 -348h-120z" />
<glyph unicode="&#xde;" horiz-adv-x="1235" d="M170 0v1475h197v-299h317q481 0 481 -406q0 -218 -139.5 -320t-437.5 -102h-221v-348h-197zM367 530h284q164 0 234.5 55.5t70.5 182.5t-69.5 182.5t-235.5 55.5h-284v-476z" />
<glyph unicode="&#xdf;" horiz-adv-x="1319" d="M156 0v1063q0 229 109.5 332.5t330 103.5t337 -81.5t116.5 -221.5q0 -118 -101 -195q-18 -14 -50 -37q-101 -75 -101 -138.5t124 -134.5q174 -98 229.5 -184.5t55.5 -187.5q0 -148 -112 -242.5t-278 -94.5q-327 0 -339 311h190q4 -83 45.5 -126.5t124 -43.5t136 51 t53.5 123.5t-42 125t-164.5 123t-168 128t-45.5 122.5t25.5 108t101.5 100.5t102.5 97.5t26.5 88q0 78 -68 129t-192 51q-256 0 -256 -303v-1067h-190z" />
<glyph unicode="&#xe0;" horiz-adv-x="1087" d="M84 296.5q0 151.5 130 247t355 95.5h179v125q0 168 -203 168q-95 0 -150.5 -47t-58.5 -129h-182v16q0 136 97.5 208.5t295.5 72.5t294.5 -75.5t96.5 -244.5v-635q0 -34 10 -98h-170q-10 32 -20 156v6q-80 -187 -330 -187q-156 0 -250 85t-94 236.5zM279 314.5 q0 -86.5 55 -136t139 -49.5q133 0 204 71.5t71 207.5v102h-160q-147 0 -228 -54.5t-81 -141zM283 1511h201l204 -348h-120z" />
<glyph unicode="&#xe1;" horiz-adv-x="1087" d="M84 296.5q0 151.5 130 247t355 95.5h179v125q0 168 -203 168q-95 0 -150.5 -47t-58.5 -129h-182v16q0 136 97.5 208.5t295.5 72.5t294.5 -75.5t96.5 -244.5v-635q0 -34 10 -98h-170q-10 32 -20 156v6q-80 -187 -330 -187q-156 0 -250 85t-94 236.5zM279 314.5 q0 -86.5 55 -136t139 -49.5q133 0 204 71.5t71 207.5v102h-160q-147 0 -228 -54.5t-81 -141zM402 1163l204 348h201l-285 -348h-120z" />
<glyph unicode="&#xe2;" horiz-adv-x="1087" d="M84 296.5q0 151.5 130 247t355 95.5h179v125q0 168 -203 168q-95 0 -150.5 -47t-58.5 -129h-182v16q0 136 97.5 208.5t295.5 72.5t294.5 -75.5t96.5 -244.5v-635q0 -34 10 -98h-170q-10 32 -20 156v6q-80 -187 -330 -187q-156 0 -250 85t-94 236.5zM250 1163l197 348h196 l197 -348h-123l-172 230l-174 -230h-121zM279 314.5q0 -86.5 55 -136t139 -49.5q133 0 204 71.5t71 207.5v102h-160q-147 0 -228 -54.5t-81 -141z" />
<glyph unicode="&#xe3;" horiz-adv-x="1087" d="M84 296.5q0 151.5 130 247t355 95.5h179v125q0 168 -203 168q-95 0 -150.5 -47t-58.5 -129h-182v16q0 136 97.5 208.5t295.5 72.5t294.5 -75.5t96.5 -244.5v-635q0 -34 10 -98h-170q-10 32 -20 156v6q-80 -187 -330 -187q-156 0 -250 85t-94 236.5zM252 1210 q18 99 68 152t125 53q35 0 59 -8l99 -29q38 -10 53 -10q66 0 94 74h88q-20 -102 -70.5 -155.5t-126.5 -53.5q-29 0 -65 10l-97 27q-26 8 -49 8q-62 0 -90 -68h-88zM279 314.5q0 -86.5 55 -136t139 -49.5q133 0 204 71.5t71 207.5v102h-160q-147 0 -228 -54.5t-81 -141z" />
<glyph unicode="&#xe4;" horiz-adv-x="1087" d="M84 296.5q0 151.5 130 247t355 95.5h179v125q0 168 -203 168q-95 0 -150.5 -47t-58.5 -129h-182v16q0 136 97.5 208.5t295.5 72.5t294.5 -75.5t96.5 -244.5v-635q0 -34 10 -98h-170q-10 32 -20 156v6q-80 -187 -330 -187q-156 0 -250 85t-94 236.5zM279 314.5 q0 -86.5 55 -136t139 -49.5q133 0 204 71.5t71 207.5v102h-160q-147 0 -228 -54.5t-81 -141zM289 1223v209h182v-209h-182zM619 1223v209h182v-209h-182z" />
<glyph unicode="&#xe5;" horiz-adv-x="1087" d="M84 296.5q0 151.5 130 247t355 95.5h179v125q0 168 -203 168q-95 0 -150.5 -47t-58.5 -129h-182v16q0 136 97.5 208.5t295.5 72.5t294.5 -75.5t96.5 -244.5v-635q0 -34 10 -98h-170q-10 32 -20 156v6q-80 -187 -330 -187q-156 0 -250 85t-94 236.5zM279 314.5 q0 -86.5 55 -136t139 -49.5q133 0 204 71.5t71 207.5v102h-160q-147 0 -228 -54.5t-81 -141zM340 1350q0 96 65.5 162.5t160 66.5t162 -67t67.5 -162t-67 -161.5t-162.5 -66.5t-160.5 66t-65 162zM453 1349.5q0 -48.5 33 -81.5t80.5 -33t81.5 34t34 80t-35 81.5t-81 35.5 t-79.5 -34t-33.5 -82.5z" />
<glyph unicode="&#xe6;" horiz-adv-x="1839" d="M90 307.5q0 156.5 116 232.5t363 76h236v9q0 156 -60 227.5t-173 71.5t-172.5 -44t-59.5 -114v-4h-193q8 139 110 215t265 76t252 -43t135 -136q65 94 150 137.5t205 43.5q218 0 341.5 -119t123.5 -328q-2 -77 -7 -125h-727l-2 -67q0 -141 77 -220t201 -79t189.5 57 t67.5 155h182q-3 -165 -118 -259.5t-314 -94.5q-133 0 -224.5 48.5t-158.5 152.5q-78 -105 -177 -153t-260 -48t-264.5 88t-103.5 244.5zM281 305q0 -88 61 -138t177 -50t197.5 79t86.5 214l2 73h-236q-147 0 -217.5 -45t-70.5 -133zM995 616h541v23q0 128 -70.5 206.5 t-187.5 78.5t-193 -81.5t-90 -226.5z" />
<glyph unicode="&#xe7;" horiz-adv-x="1057" d="M98 500.5q0 256.5 124.5 404.5t346.5 148q173 0 276 -93.5t103 -250.5v-4h-184q0 92 -60 153.5t-149 61.5q-121 0 -190.5 -102.5t-69.5 -280.5q0 -418 256 -418q99 0 159 61.5t62 165.5h184q-12 -180 -115 -275.5t-304 -95.5t-320 134.5t-119 391zM291 -326 q165 -39 246 -39q121 0 121 84t-127 84l-60 -1v198h76v-102h29q223 0 223 -181q0 -91 -64.5 -139.5t-174 -48.5t-269.5 45v100z" />
<glyph unicode="&#xe8;" horiz-adv-x="1128" d="M102 502q0 263 122.5 407t341 144t338.5 -119.5t120 -325.5q0 -79 -4 -125h-729v-61q0 -146 75 -225.5t200 -79.5t191.5 57.5t68.5 155.5h179q-1 -160 -114.5 -257.5t-300.5 -97.5q-240 0 -364 132t-124 395zM301 616h530v23q0 128 -70.5 206.5t-188 78.5t-194.5 -85 t-77 -223zM303 1511h201l204 -348h-120z" />
<glyph unicode="&#xe9;" horiz-adv-x="1128" d="M102 502q0 263 122.5 407t341 144t338.5 -119.5t120 -325.5q0 -79 -4 -125h-729v-61q0 -146 75 -225.5t200 -79.5t191.5 57.5t68.5 155.5h179q-1 -160 -114.5 -257.5t-300.5 -97.5q-240 0 -364 132t-124 395zM301 616h530v23q0 128 -70.5 206.5t-188 78.5t-194.5 -85 t-77 -223zM422 1163l204 348h201l-285 -348h-120z" />
<glyph unicode="&#xea;" horiz-adv-x="1128" d="M102 502q0 263 122.5 407t341 144t338.5 -119.5t120 -325.5q0 -79 -4 -125h-729v-61q0 -146 75 -225.5t200 -79.5t191.5 57.5t68.5 155.5h179q-1 -160 -114.5 -257.5t-300.5 -97.5q-240 0 -364 132t-124 395zM270 1163l197 348h196l197 -348h-123l-172 230l-174 -230 h-121zM301 616h530v23q0 128 -70.5 206.5t-188 78.5t-194.5 -85t-77 -223z" />
<glyph unicode="&#xeb;" horiz-adv-x="1128" d="M102 502q0 263 122.5 407t341 144t338.5 -119.5t120 -325.5q0 -79 -4 -125h-729v-61q0 -146 75 -225.5t200 -79.5t191.5 57.5t68.5 155.5h179q-1 -160 -114.5 -257.5t-300.5 -97.5q-240 0 -364 132t-124 395zM301 616h530v23q0 128 -70.5 206.5t-188 78.5t-194.5 -85 t-77 -223zM309 1223v209h182v-209h-182zM639 1223v209h182v-209h-182z" />
<glyph unicode="&#xec;" horiz-adv-x="512" d="M-6 1511h201l204 -348h-120zM162 0v1028h190v-1028h-190z" />
<glyph unicode="&#xed;" horiz-adv-x="512" d="M113 1163l204 348h201l-285 -348h-120zM162 0v1028h190v-1028h-190z" />
<glyph unicode="&#xee;" horiz-adv-x="512" d="M-39 1163l197 348h196l197 -348h-123l-172 230l-174 -230h-121zM162 0v1028h190v-1028h-190z" />
<glyph unicode="&#xef;" horiz-adv-x="512" d="M0 1223v209h182v-209h-182zM162 0v1028h190v-1028h-190zM330 1223v209h182v-209h-182z" />
<glyph unicode="&#xf0;" horiz-adv-x="1233" d="M106 443.5q0 222.5 135 361.5t353 139q137 0 270 -76q-87 151 -235 287l-305 -127l-52 96l258 109q-120 79 -213 129l93 113q141 -65 299 -175l288 121l52 -96l-242 -102q157 -142 240 -326.5t83 -390.5q0 -254 -134 -392.5t-378 -138.5t-378 123t-134 345.5zM301 458.5 q0 -162.5 80.5 -252t230 -89.5t235 92t85.5 257.5t-82 256t-230.5 90.5t-233.5 -96t-85 -258.5z" />
<glyph unicode="&#xf1;" horiz-adv-x="1204" d="M158 1028h192l6 -168q35 83 121.5 131.5t194.5 48.5t192 -37q143 -62 172 -189q11 -51 11 -175v-639h-189v649q0 130 -55.5 191t-174.5 61t-195.5 -65t-76.5 -168v-668h-190v817q0 113 -8 211zM309 1210q18 99 68 152t125 53q35 0 59 -8l99 -29q38 -10 53 -10q66 0 94 74 h88q-20 -102 -70.5 -155.5t-126.5 -53.5q-29 0 -65 10l-97 27q-26 8 -49 8q-62 0 -90 -68h-88z" />
<glyph unicode="&#xf2;" horiz-adv-x="1233" d="M106 502.5q0 249.5 137.5 399t376 149.5t371.5 -139.5t133 -394t-137.5 -398.5t-376.5 -144t-371.5 139t-132.5 388.5zM301 507q0 -187 82 -287.5t231 -100.5t233.5 106.5t84.5 294.5t-82 291.5t-230 103.5t-233.5 -110.5t-85.5 -297.5zM354 1511h201l204 -348h-120z" />
<glyph unicode="&#xf3;" horiz-adv-x="1233" d="M106 502.5q0 249.5 137.5 399t376 149.5t371.5 -139.5t133 -394t-137.5 -398.5t-376.5 -144t-371.5 139t-132.5 388.5zM301 507q0 -187 82 -287.5t231 -100.5t233.5 106.5t84.5 294.5t-82 291.5t-230 103.5t-233.5 -110.5t-85.5 -297.5zM473 1163l204 348h201l-285 -348 h-120z" />
<glyph unicode="&#xf4;" horiz-adv-x="1233" d="M106 502.5q0 249.5 137.5 399t376 149.5t371.5 -139.5t133 -394t-137.5 -398.5t-376.5 -144t-371.5 139t-132.5 388.5zM301 507q0 -187 82 -287.5t231 -100.5t233.5 106.5t84.5 294.5t-82 291.5t-230 103.5t-233.5 -110.5t-85.5 -297.5zM321 1163l197 348h196l197 -348 h-123l-172 230l-174 -230h-121z" />
<glyph unicode="&#xf5;" horiz-adv-x="1233" d="M106 502.5q0 249.5 137.5 399t376 149.5t371.5 -139.5t133 -394t-137.5 -398.5t-376.5 -144t-371.5 139t-132.5 388.5zM301 507q0 -187 82 -287.5t231 -100.5t233.5 106.5t84.5 294.5t-82 291.5t-230 103.5t-233.5 -110.5t-85.5 -297.5zM323 1210q18 99 68 152t125 53 q35 0 59 -8l99 -29q38 -10 53 -10q66 0 94 74h88q-20 -102 -70.5 -155.5t-126.5 -53.5q-29 0 -65 10l-97 27q-26 8 -49 8q-62 0 -90 -68h-88z" />
<glyph unicode="&#xf6;" horiz-adv-x="1233" d="M106 502.5q0 249.5 137.5 399t376 149.5t371.5 -139.5t133 -394t-137.5 -398.5t-376.5 -144t-371.5 139t-132.5 388.5zM301 507q0 -187 82 -287.5t231 -100.5t233.5 106.5t84.5 294.5t-82 291.5t-230 103.5t-233.5 -110.5t-85.5 -297.5zM360 1223v209h182v-209h-182z M690 1223v209h182v-209h-182z" />
<glyph unicode="&#xf7;" horiz-adv-x="1706" d="M254 541v139h1198v-139h-1198zM729 241q0 52 37 89t88 37t88 -37t37 -88.5t-36.5 -88t-89 -36.5t-88.5 36t-36 88zM729 979q0 52 37 89.5t88 37.5t88 -37.5t37 -89t-36.5 -88.5t-88.5 -37t-88.5 36.5t-36.5 88.5z" />
<glyph unicode="&#xf8;" horiz-adv-x="1233" d="M106 483.5q0 265.5 137 417.5t367 152q144 0 248 -54l113 195l94 -47l-115 -199q174 -127 174 -428q0 -256 -137.5 -400.5t-382.5 -144.5q-97 0 -213 31l-129 -217l-98 55l127 207q-185 167 -185 432.5zM301 508q0 -190 84 -299l397 663q-77 43 -164 43q-145 0 -231 -110 t-86 -297zM474 145q58 -26 128 -26q328 0 328 420q0 148 -70 256z" />
<glyph unicode="&#xf9;" horiz-adv-x="1204" d="M158 383v645h188v-657q0 -130 56 -191t174.5 -61t195 66t76.5 169v674h190v-825q0 -126 9 -203h-193l-6 162q-35 -83 -122.5 -132.5t-194.5 -49.5t-191 38q-144 64 -171 190q-11 51 -11 175zM332 1511h201l204 -348h-120z" />
<glyph unicode="&#xfa;" horiz-adv-x="1204" d="M158 383v645h188v-657q0 -130 56 -191t174.5 -61t195 66t76.5 169v674h190v-825q0 -126 9 -203h-193l-6 162q-35 -83 -122.5 -132.5t-194.5 -49.5t-191 38q-144 64 -171 190q-11 51 -11 175zM451 1163l204 348h201l-285 -348h-120z" />
<glyph unicode="&#xfb;" horiz-adv-x="1204" d="M158 383v645h188v-657q0 -130 56 -191t174.5 -61t195 66t76.5 169v674h190v-825q0 -126 9 -203h-193l-6 162q-35 -83 -122.5 -132.5t-194.5 -49.5t-191 38q-144 64 -171 190q-11 51 -11 175zM299 1163l197 348h196l197 -348h-123l-172 230l-174 -230h-121z" />
<glyph unicode="&#xfc;" horiz-adv-x="1204" d="M158 383v645h188v-657q0 -130 56 -191t174.5 -61t195 66t76.5 169v674h190v-825q0 -126 9 -203h-193l-6 162q-35 -83 -122.5 -132.5t-194.5 -49.5t-191 38q-144 64 -171 190q-11 51 -11 175zM338 1223v209h182v-209h-182zM668 1223v209h182v-209h-182z" />
<glyph unicode="&#xfd;" horiz-adv-x="1112" d="M33 1028h192l328 -815l332 815h188l-602 -1417h-176l158 389zM414 1163l204 348h201l-285 -348h-120z" />
<glyph unicode="&#xfe;" horiz-adv-x="1233" d="M158 -389v1864h188v-601q115 179 330 179t334.5 -141.5t119.5 -397t-115.5 -393t-330.5 -137.5t-338 174v-547h-188zM346 526.5q0 -188.5 80 -303t214 -114.5t215 107t81 295.5t-79.5 302.5t-213.5 114t-215.5 -106.5t-81.5 -295z" />
<glyph unicode="&#xff;" horiz-adv-x="1112" d="M33 1028h192l328 -815l332 815h188l-602 -1417h-176l158 389zM301 1223v209h182v-209h-182zM631 1223v209h182v-209h-182z" />
<glyph unicode="&#x152;" horiz-adv-x="2038" d="M115 739q0 750 716 750l312 -12h792v-174h-692v-453h653v-176h-653v-500h692v-174h-768l-352 -12q-353 0 -526.5 188t-173.5 563zM317 741q0 -284 131.5 -431.5t382.5 -147.5q73 0 207 12v1126q-128 15 -200 15q-521 0 -521 -574z" />
<glyph unicode="&#x153;" horiz-adv-x="1919" d="M102 503.5q0 253.5 132 401.5t368 148q129 0 225 -43t174 -136q140 179 359 179t340 -119.5t121 -325.5q0 -79 -4 -125h-730v-84q0 -130 78 -207t200 -77t188.5 57.5t68.5 156.5h180q-1 -159 -115 -256.5t-301 -97.5q-137 0 -232 41.5t-163 130.5q-82 -89 -179.5 -130.5 t-227.5 -41.5q-227 0 -354.5 137.5t-127.5 391zM295 506.5q0 -188.5 80.5 -290t225.5 -101.5t227.5 107.5t82.5 297t-81.5 297t-224 107.5t-226.5 -114.5t-84 -303zM1094 618h532v23q0 128 -70.5 205.5t-188.5 77.5t-195.5 -84.5t-77.5 -221.5z" />
<glyph unicode="&#x178;" horiz-adv-x="1346" d="M18 1475h244l426 -719l414 719h225l-551 -893v-582h-196v582zM418 1669v209h182v-209h-182zM748 1669v209h182v-209h-182z" />
<glyph unicode="&#x2c6;" horiz-adv-x="1024" d="M217 1163l197 348h196l197 -348h-123l-172 230l-174 -230h-121z" />
<glyph unicode="&#x2dc;" horiz-adv-x="1024" d="M219 1210q18 99 68 152t125 53q35 0 59 -8l99 -29q38 -10 53 -10q66 0 94 74h88q-20 -102 -70.5 -155.5t-126.5 -53.5q-29 0 -65 10l-97 27q-26 8 -49 8q-62 0 -90 -68h-88z" />
<glyph unicode="&#x2000;" horiz-adv-x="986" />
<glyph unicode="&#x2001;" horiz-adv-x="1972" />
<glyph unicode="&#x2002;" horiz-adv-x="986" />
<glyph unicode="&#x2003;" horiz-adv-x="1972" />
<glyph unicode="&#x2004;" horiz-adv-x="657" />
<glyph unicode="&#x2005;" horiz-adv-x="493" />
<glyph unicode="&#x2006;" horiz-adv-x="328" />
<glyph unicode="&#x2007;" horiz-adv-x="328" />
<glyph unicode="&#x2008;" horiz-adv-x="246" />
<glyph unicode="&#x2009;" horiz-adv-x="394" />
<glyph unicode="&#x200a;" horiz-adv-x="109" />
<glyph unicode="&#x2010;" horiz-adv-x="678" d="M96 428v172h486v-172h-486z" />
<glyph unicode="&#x2011;" horiz-adv-x="678" d="M96 428v172h486v-172h-486z" />
<glyph unicode="&#x2012;" horiz-adv-x="678" d="M96 428v172h486v-172h-486z" />
<glyph unicode="&#x2013;" horiz-adv-x="1024" d="M0 451v127h1024v-127h-1024z" />
<glyph unicode="&#x2014;" horiz-adv-x="2048" d="M0 451v127h2048v-127h-2048z" />
<glyph unicode="&#x2018;" horiz-adv-x="522" d="M76 971l229 504h141l-137 -504h-233z" />
<glyph unicode="&#x2019;" horiz-adv-x="522" d="M76 971l135 504h235l-229 -504h-141z" />
<glyph unicode="&#x201a;" horiz-adv-x="522" d="M76 -252l135 504h235l-229 -504h-141z" />
<glyph unicode="&#x201c;" horiz-adv-x="897" d="M76 971l229 504h141l-137 -504h-233zM451 971l229 504h141l-137 -504h-233z" />
<glyph unicode="&#x201d;" horiz-adv-x="897" d="M76 971l135 504h235l-229 -504h-141zM451 971l137 504h233l-229 -504h-141z" />
<glyph unicode="&#x201e;" horiz-adv-x="897" d="M76 -248l135 502h235l-229 -502h-141zM451 -248l137 502h233l-229 -502h-141z" />
<glyph unicode="&#x2022;" horiz-adv-x="1208" d="M307 762q0 123 87 209t209.5 86t209 -86.5t86.5 -208.5t-87.5 -209.5t-210 -87.5t-208.5 87t-86 210z" />
<glyph unicode="&#x2026;" horiz-adv-x="2048" d="M229 0v252h223v-252h-223zM911 0v252h223v-252h-223zM1595 0v252h223v-252h-223z" />
<glyph unicode="&#x202f;" horiz-adv-x="394" />
<glyph unicode="&#x2039;" horiz-adv-x="616" d="M115 522l213 393h164l-183 -393l193 -409h-162z" />
<glyph unicode="&#x203a;" horiz-adv-x="616" d="M115 113l192 409l-182 393h164l213 -393l-228 -409h-159z" />
<glyph unicode="&#x205f;" horiz-adv-x="493" />
<glyph unicode="&#x20ac;" d="M-23 811l52 117h118q20 276 149 422.5t336.5 146.5t316 -108.5t114.5 -309.5l-199 1q-9 119 -69.5 187t-169.5 68t-185.5 -107t-91.5 -300h443l-52 -117h-399q-2 -48 -2 -80.5t2 -62.5h334l-53 -117h-273q15 -202 89 -308t200 -106q96 0 156.5 70.5t64.5 187.5h209 q-2 -192 -119.5 -306t-320.5 -114t-329 150t-151 426h-141l53 117h82q-2 48 -2 79.5t2 63.5h-164z" />
<glyph unicode="&#x2122;" horiz-adv-x="1706" d="M242 1378v80h452v-80h-172v-458h-108v458h-172zM813 920v538h150l151 -385l141 385h150v-538h-98v444l-166 -444h-56l-174 444v-444h-98z" />
<glyph unicode="&#xe000;" horiz-adv-x="1030" d="M0 0v1030h1030v-1030h-1030z" />
</font>
</defs>
</svg>
